<svg xmlns="http://www.w3.org/2000/svg" viewBox="0 0 653.69 127.82"><defs><style>.cls-1{fill:#d4af37;}.cls-1,.cls-3{fill-rule:evenodd;}.cls-2,.cls-3{fill:#fafad2;}</style></defs><g id="Layer_2" data-name="Layer 2"><g id="Layer_1-2" data-name="Layer 1"><path class="cls-1" d="M604.56,49.81H628.9a24.44,24.44,0,0,0,24.37-24.38V24.34A24.43,24.43,0,0,0,628.9,0h0a24.41,24.41,0,0,0-24.34,24.34Z"/><path class="cls-2" d="M132.72,125.19V64.8c0-11.95-7.13-20.47-17.71-20.47-11.05,0-19.1,9.12-19.1,21.28v59.58H66v-60c0-16-4.83-20.06-17.94-20.06-12,0-18.17,6.48-18.17,19.45v60.59H0V25.49H28.06V40.08c7.59-13.17,18.17-17.22,33.12-17.22,15.41,0,22.77,4.25,31.51,15.8,6.21-10.94,16.33-15.8,30.6-15.8,22.77,0,38.64,14.59,38.64,33.23v69.1Z"/><path class="cls-2" d="M206.55,82.23c.92,15,10.58,24.72,25.3,24.72,9.66,0,18.17-4.26,20.24-11.14h30.82c-6.9,20.46-25.53,32-49.68,32-37.72,0-56.58-18.24-56.58-54.31,0-30.8,20-50.65,54.74-50.65s53.13,19.85,53.13,59.37ZM253.7,65.61c-.46-14.79-11.5-21.88-23.23-21.88-12,0-21.85,8.1-23,21.88Z"/><path class="cls-2" d="M353.29,125.19l-19.78-30-19.32,30H278.31l37.95-50.86-36.8-48.84h36.11l19.09,29,19.32-29h34.73L351.22,74.33l38.64,50.86Z"/><path class="cls-2" d="M477,125.19v-14c-7.82,11.34-19.55,16.61-35.19,16.61-22.54,0-38.41-14.79-38.41-36.68V25.49h29.9v61.6c0,12.57,6.44,18.64,19.09,18.64,15.18,0,23.23-9.52,23.23-22.69V25.49h29.67v99.7Z"/><path class="cls-2" d="M524.18,125.19V25.49h28.06v12c9.9-13.38,21.4-14.59,33.59-14.59h3.91v27a56.27,56.27,0,0,0-8.28-.61c-18.4,0-27.38,8.1-27.38,24.11v51.88Z"/><path class="cls-3" d="M604.56,52.12h24.58c13.51,0,24.55,13.39,24.55,29.78v43.29H604.56Z"/></g></g></svg>